name Walk2.mot
datacolumns 19
datarows 12
range 1.72800000 1.73900000
endheader

                time	   L_ground_force_vx	   L_ground_force_vy	   L_ground_force_vz	   L_ground_force_px	   L_ground_force_py	   L_ground_force_pz	   R_ground_force_vx	   R_ground_force_vy	   R_ground_force_vz	   R_ground_force_px	   R_ground_force_py	   R_ground_force_pz	   L_ground_torque_x	   L_ground_torque_y	   L_ground_torque_z	   R_ground_torque_x	   R_ground_torque_y	   R_ground_torque_z	
          1.72800000	         -0.04293465	          0.50112811	         -0.05654799	          0.00054428	          0.00000000	          0.00031763	         24.84528657	        692.83285017	        -18.46398246	         -0.12847074	          0.00000000	          0.32819474	          0.00000000	         -0.00024627	          0.00000000	          0.00000000	          3.73204435	          0.00000000	
          1.72900000	         -0.04597767	          0.51709679	         -0.05761160	          0.00055288	          0.00000000	          0.00032222	         25.15734955	        694.82039248	        -18.58851495	         -0.12786783	          0.00000000	          0.32821925	          0.00000000	         -0.00026583	          0.00000000	          0.00000000	          3.71018203	          0.00000000	
          1.73000000	         -0.04911359	          0.53241380	         -0.05853612	          0.00056000	          0.00000000	          0.00032591	         25.47582371	        696.78968903	        -18.71696501	         -0.12726498	          0.00000000	          0.32824427	          0.00000000	         -0.00028612	          0.00000000	          0.00000000	          3.68727732	          0.00000000	
          1.73100000	         -0.05233807	          0.54695532	         -0.05930480	          0.00056547	          0.00000000	          0.00032860	         25.80076313	        698.74075433	        -18.84915462	         -0.12666236	          0.00000000	          0.32826975	          0.00000000	         -0.00030711	          0.00000000	          0.00000000	          3.66334001	          0.00000000	
          1.73200000	         -0.05564603	          0.56058924	         -0.05989998	          0.00056911	          0.00000000	          0.00033017	         26.13222413	        700.67362930	        -18.98488803	         -0.12606012	          0.00000000	          0.32829567	          0.00000000	         -0.00032878	          0.00000000	          0.00000000	          3.63838373	          0.00000000	
          1.73300000	         -0.05903158	          0.57317490	         -0.06030310	          0.00057074	          0.00000000	          0.00033054	         26.47026727	        702.58838134	        -19.12395141	         -0.12545841	          0.00000000	          0.32832195	          0.00000000	         -0.00035111	          0.00000000	          0.00000000	          3.61242623	          0.00000000	
          1.73400000	         -0.06248793	          0.58456293	         -0.06049462	          0.00057017	          0.00000000	          0.00032957	         26.81495938	        704.48510486	        -19.26611276	         -0.12485739	          0.00000000	          0.32834855	          0.00000000	         -0.00037406	          0.00000000	          0.00000000	          3.58548924	          0.00000000	
          1.73500000	         -0.06600740	          0.59459500	         -0.06045411	          0.00056719	          0.00000000	          0.00032715	         27.16637535	        706.36392218	        -19.41112233	         -0.12425722	          0.00000000	          0.32837540	          0.00000000	         -0.00039760	          0.00000000	          0.00000000	          3.55759832	          0.00000000	
          1.73600000	         -0.06958130	          0.60310368	         -0.06016016	          0.00056158	          0.00000000	          0.00032315	         27.52459959	        708.22498494	        -19.55871338	         -0.12365806	          0.00000000	          0.32840245	          0.00000000	         -0.00042169	          0.00000000	          0.00000000	          3.52878238	          0.00000000	
          1.73700000	         -0.07319995	          0.60991226	         -0.05959044	          0.00055314	          0.00000000	          0.00031745	         27.88972696	        710.06847506	        -19.70860305	         -0.12306006	          0.00000000	          0.32842964	          0.00000000	         -0.00044627	          0.00000000	          0.00000000	          3.49907321	          0.00000000	
          1.73800000	         -0.07685255	          0.61483464	         -0.05872167	          0.00054163	          0.00000000	          0.00030990	         28.26186350	        711.89460511	        -19.86049336	         -0.12246339	          0.00000000	          0.32845689	          0.00000000	         -0.00047129	          0.00000000	          0.00000000	          3.46850502	          0.00000000	
          1.73900000	         -0.08052717	          0.61767523	         -0.05752966	          0.00052681	          0.00000000	          0.00030038	         28.64112689	        713.70361726	        -20.01407210	         -0.12186822	          0.00000000	          0.32848415	          0.00000000	         -0.00049670	          0.00000000	          0.00000000	          3.43711375	          0.00000000	
